<svg version="1.2" xmlns="http://www.w3.org/2000/svg" viewBox="0 0 864 270" width="864" height="270">
	<title>uw-logo-horizontal-full-color-rev-print-ai</title>
	<defs>
		<radialGradient id="g1" cx="0" cy="0" r="1" gradientUnits="userSpaceOnUse" gradientTransform="matrix(83.554,0,0,83.554,133.867,135.444)">
			<stop offset=".25" stop-color="#ffffff"/>
			<stop offset=".84" stop-color="#d0b48d"/>
		</radialGradient>
	</defs>
	<style>
		.s0 { fill: #fefefe } 
		.s1 { fill: url(#g1) } 
		.s2 { fill: #231f20 } 
		.s3 { fill: #cd1442 } 
	</style>
	<g id="Layer 1">
		<g id="&lt;Group&gt;">
			<path id="&lt;Path&gt;" class="s0" d="m314 99.3c8.6 3.1 5 12.4 3 18.9l-12.4 41.7-15.3-49.4c-1.5-5-2.3-8.6-1.7-11.5h-15.5v0.3c6.1 3.2 3.9 10.7 1.8 17.6l-12.9 43.4-16.4-53.1c-0.6-2.2-1.7-5.7-1.3-8.2h-16v0.3c5.5 3.9 7.1 11.3 9.1 17.6l13 42.1c3.6 11.8 4.6 11 14.6 18.5l17.2-57.6 12.1 39.2c3.6 11.8 4.4 11.2 14.5 18.4l23.2-78.5h-17z"/>
			<path id="&lt;Path&gt;" class="s0" d="m334.7 99.3c5.6 2.2 4.9 10.5 4.9 15.8v43c0 5.1 0.6 13.6-4.9 15.6v0.4h20.9v-0.4c-5.5-2.1-4.8-10.5-4.8-15.6v-43c0-5.1-0.7-13.6 4.8-15.8v-0.3h-20.9z"/>
			<path id="&lt;Path&gt;" class="s0" d="m374.9 115.8c0-7.9 7.9-10.4 14.2-10.4 6.1 0 13 2.6 17.2 7.2v-12.9c-5.2-1.7-10.8-2.5-16.4-2.5-13.4 0-27.6 5.5-27.6 19.8 0 24.2 37.9 21 37.9 38.8 0 8-9.5 11.9-15.7 11.9-8.6 0-17.7-3.7-24.1-9.5l3.2 14.3c6.2 2.4 12.9 3.4 19.6 3.4 17.2 0 29.5-11.4 29.5-23.6 0-21.1-37.8-20.9-37.8-36.5z"/>
			<path id="&lt;Path&gt;" class="s0" d="m457.3 166.4c-16.9 0-27.9-14.9-27.9-31.7 0-16.5 10.5-28 25.7-28 7.3 0 14.3 2.5 20.4 6.5v-13.2c-6.5-1.6-13.4-2.8-20.1-2.8-22.5 0-38.6 15.6-38.6 39.2 0 24.4 16.1 39.5 42.1 39.5 5.7 0 11.4-0.9 16.6-3.4l5.6-13.3h-0.4c-6.9 4.1-15.1 7.2-23.4 7.2z"/>
			<path id="&lt;Compound Path&gt;" fill-rule="evenodd" class="s0" d="m560.1 135.7c0 23.3-18.6 40.2-40.5 40.2-21.7 0-40.1-16.2-40.1-39.6 0-21.7 18.1-39.8 41.2-39.2 23.2-0.1 39.4 18.1 39.4 38.6zm-12.5 2.3c0-16.6-10.2-32.7-27.6-32.7-17.1 0-28 12.8-28 30 0 16 10.9 32.4 28.2 32.4 16.7 0 27.4-12.7 27.4-29.7z"/>
			<path id="&lt;Path&gt;" class="s0" d="m616.6 99.3c5.9 3.5 5.8 8 5.8 14.4v43.3l-40.3-52.7-1.5-2.3c-0.8-0.9-1.3-1.5-1.7-2.9v-0.1h-16.1v0.3c5.8 3.5 5.8 8 5.8 14.4v45.5c0 6.4 0 11-5.9 14.5v0.4h19.5v-0.4c-5.8-3.5-5.7-8.1-5.7-14.5v-44.1l37.7 49.6c4.9 6.5 8.3 10.3 16.1 13v-64c0-6.4 0-10.9 5.7-14.4v-0.3h-19.4z"/>
			<path id="&lt;Path&gt;" class="s0" d="m652.1 115.8c0-7.9 7.9-10.4 14.2-10.4 6.1 0 13 2.6 17.3 7.2v-12.9c-5.3-1.7-10.9-2.5-16.4-2.5-13.5 0-27.6 5.5-27.6 19.8 0 24.2 37.8 21 37.8 38.8 0 8-9.5 11.9-15.7 11.9-8.6 0-17.6-3.7-24.1-9.5l3.2 14.3c6.2 2.4 12.9 3.4 19.7 3.4 17.1 0 29.4-11.4 29.4-23.6 0-21.1-37.8-20.9-37.8-36.5z"/>
			<path id="&lt;Path&gt;" class="s0" d="m694.1 99.3c5.6 2.2 4.8 10.5 4.8 15.8v43c0 5.1 0.7 13.6-4.8 15.6v0.4h20.9v-0.4c-5.5-2.1-4.9-10.5-4.9-15.6v-43c0-5.1-0.6-13.6 4.9-15.8v-0.3h-20.9z"/>
			<path id="&lt;Path&gt;" class="s0" d="m774.3 99v0.3c5.9 3.5 5.7 8 5.7 14.4v43.3l-40.2-52.7-1.6-2.3c-0.7-0.9-1.2-1.5-1.6-2.9v-0.1h-16.1v0.3c5.7 3.5 5.7 8 5.7 14.4v45.5c0 6.4 0 11-5.8 14.5v0.4h19.5v-0.4c-5.9-3.5-5.7-8.1-5.7-14.5v-44.1l37.7 49.6c4.8 6.5 8.3 10.3 16 13v-64c0-6.4 0-10.9 5.8-14.4v-0.3z"/>
		</g>
		<g id="&lt;Group&gt;">
			<path id="&lt;Compound Path&gt;" class="s0" d="m258.2 206.5q1.2 0 2.1-0.4 1-0.4 1.7-1.1 0.6-0.8 1-1.8 0.3-1 0.3-2.2v-12.2h3v12.2q0 1.7-0.6 3.2-0.5 1.5-1.6 2.6-1 1.1-2.5 1.7-1.5 0.6-3.4 0.6-1.9 0-3.4-0.6-1.5-0.6-2.5-1.7-1.1-1.1-1.6-2.6-0.6-1.5-0.6-3.2v-12.2h3v12.1q0 1.3 0.3 2.3 0.4 1 1 1.8 0.7 0.7 1.6 1.1 1 0.4 2.2 0.4z"/>
			<path id="&lt;Compound Path&gt;" class="s0" d="m288.2 188.8v20.1h-1.6q-0.3 0-0.5-0.1-0.3-0.2-0.5-0.4l-11.4-14.7q0.1 0.4 0.1 0.7 0 0.4 0 0.7v13.8h-2.6v-20.1h1.5q0.4 0 0.6 0.1 0.2 0.1 0.5 0.4l11.3 14.7q0-0.4 0-0.8 0-0.4 0-0.7v-13.7z"/>
			<path id="&lt;Compound Path&gt;" class="s0" d="m296.9 208.9h-3v-20.1h3z"/>
			<path id="&lt;Compound Path&gt;" class="s0" d="m319.2 188.8l-8.2 20.1h-2.6l-8.2-20.1h2.4q0.4 0 0.6 0.2 0.3 0.2 0.4 0.5l5.4 13.7q0.2 0.5 0.4 1.1 0.2 0.6 0.3 1.2 0.2-0.6 0.4-1.2 0.1-0.6 0.3-1.1l5.4-13.7q0.1-0.3 0.4-0.5 0.2-0.2 0.6-0.2z"/>
			<path id="&lt;Compound Path&gt;" class="s0" d="m335 206.5v2.4h-12.5v-20.1h12.5v2.4h-9.5v6.4h7.6v2.3h-7.6v6.6z"/>
			<path id="&lt;Compound Path&gt;" fill-rule="evenodd" class="s0" d="m354.5 208.9h-2.6q-0.8 0-1.2-0.6l-5-7q-0.2-0.4-0.5-0.5-0.3-0.1-0.8-0.1h-2v8.2h-3v-20.1h5.8q2 0 3.4 0.4 1.4 0.4 2.3 1.1 0.9 0.8 1.4 1.8 0.4 1 0.4 2.3 0 1.1-0.3 2-0.3 0.9-1 1.7-0.6 0.7-1.5 1.2-0.9 0.6-2 0.8 0.5 0.4 1 1zm-9.4-10.4q1.1 0 2-0.3 0.9-0.3 1.5-0.8 0.5-0.5 0.8-1.2 0.3-0.7 0.3-1.6 0-1.7-1.1-2.6-1.1-0.9-3.4-0.9h-2.8v7.4z"/>
			<path id="&lt;Compound Path&gt;" class="s0" d="m368.3 192.1q-0.1 0.2-0.3 0.3-0.1 0.1-0.3 0.1-0.3 0-0.6-0.2-0.3-0.2-0.8-0.5-0.5-0.3-1.2-0.5-0.7-0.3-1.6-0.3-0.9 0-1.5 0.3-0.7 0.2-1.2 0.6-0.4 0.4-0.6 0.9-0.3 0.6-0.3 1.2 0 0.8 0.4 1.3 0.5 0.6 1.1 1 0.7 0.3 1.6 0.6 0.8 0.3 1.7 0.6 0.9 0.3 1.8 0.7 0.8 0.4 1.5 1 0.7 0.6 1.1 1.4 0.4 0.9 0.4 2.1 0 1.4-0.5 2.5-0.4 1.2-1.3 2.1-0.9 0.8-2.1 1.3-1.3 0.5-2.9 0.5-1 0-1.9-0.2-0.9-0.2-1.7-0.5-0.8-0.3-1.5-0.8-0.7-0.5-1.3-1.1l0.9-1.4q0.1-0.2 0.3-0.3 0.1-0.1 0.4-0.1 0.3 0 0.6 0.3 0.4 0.3 1 0.7 0.6 0.3 1.4 0.6 0.7 0.3 1.9 0.3 0.9 0 1.6-0.2 0.8-0.2 1.3-0.7 0.5-0.5 0.7-1.1 0.3-0.6 0.3-1.4 0-0.9-0.4-1.5-0.4-0.5-1.1-0.9-0.7-0.4-1.5-0.6-0.9-0.3-1.8-0.6-0.9-0.3-1.7-0.7-0.9-0.3-1.6-1-0.6-0.6-1-1.5-0.4-0.9-0.4-2.2 0-1.1 0.4-2.1 0.4-1 1.2-1.8 0.8-0.8 2-1.3 1.2-0.4 2.7-0.4 1.7 0 3.1 0.5 1.4 0.6 2.5 1.6z"/>
			<path id="&lt;Compound Path&gt;" class="s0" d="m376.9 208.9h-3v-20.1h3z"/>
			<path id="&lt;Compound Path&gt;" class="s0" d="m396.1 191.3h-6.4v17.6h-3v-17.6h-6.4v-2.5h15.8z"/>
			<path id="&lt;Compound Path&gt;" class="s0" d="m408.3 200.9v8h-3v-8l-7.3-12.1h2.6q0.4 0 0.6 0.2 0.3 0.2 0.4 0.5l4.4 7.5q0.2 0.5 0.5 1 0.2 0.4 0.3 0.9 0.2-0.5 0.4-0.9 0.2-0.5 0.5-1l4.3-7.5q0.2-0.3 0.4-0.5 0.3-0.2 0.6-0.2h2.7z"/>
			<path id="&lt;Compound Path&gt;" fill-rule="evenodd" class="s0" d="m445.2 198.8q0 2.3-0.7 4.2-0.7 1.9-2.1 3.2-1.3 1.4-3.1 2.2-1.8 0.7-4.1 0.7-2.2 0-4-0.7-1.9-0.8-3.2-2.2-1.3-1.3-2-3.2-0.8-1.9-0.8-4.2 0-2.2 0.8-4.1 0.7-1.9 2-3.2 1.3-1.4 3.2-2.2 1.8-0.7 4-0.7 2.3 0 4.1 0.7 1.8 0.8 3.1 2.2 1.4 1.3 2.1 3.2 0.7 1.9 0.7 4.1zm-3 0q0-1.7-0.5-3.2-0.5-1.4-1.4-2.4-0.9-1-2.2-1.5-1.3-0.6-2.9-0.6-1.6 0-2.8 0.6-1.3 0.5-2.2 1.5-0.9 1-1.4 2.4-0.5 1.5-0.5 3.2 0 1.9 0.5 3.3 0.5 1.4 1.4 2.4 0.9 1 2.2 1.5 1.2 0.5 2.8 0.5 1.6 0 2.9-0.5 1.3-0.5 2.2-1.5 0.9-1 1.4-2.4 0.5-1.4 0.5-3.3z"/>
			<path id="&lt;Compound Path&gt;" class="s0" d="m452.6 191.2v6.8h8v2.4h-8v8.5h-3v-20.1h12.4v2.4z"/>
			<path id="&lt;Compound Path&gt;" class="s0" d="m500.3 188.8l-6.3 20.1h-2.7l-4.9-14.9q-0.1-0.5-0.2-1.1-0.2 0.7-0.3 1.1l-5 14.9h-2.7l-6.2-20.1h2.4q0.4 0 0.7 0.2 0.3 0.2 0.4 0.5l3.9 13.5q0.1 0.3 0.2 0.8 0.1 0.5 0.2 1 0.1-0.5 0.2-1 0.1-0.5 0.3-0.8l4.5-13.5q0.1-0.3 0.4-0.5 0.2-0.2 0.6-0.2h0.9q0.4 0 0.6 0.2 0.3 0.2 0.4 0.5l4.5 13.5q0.2 0.7 0.4 1.7 0.2-1 0.4-1.7l4-13.5q0-0.3 0.3-0.5 0.3-0.2 0.7-0.2z"/>
			<path id="&lt;Compound Path&gt;" class="s0" d="m506.7 208.9h-3v-20.1h3z"/>
			<path id="&lt;Compound Path&gt;" class="s0" d="m522.7 192.1q-0.1 0.2-0.3 0.3-0.1 0.1-0.4 0.1-0.2 0-0.5-0.2-0.4-0.2-0.8-0.5-0.5-0.3-1.2-0.5-0.7-0.3-1.6-0.3-0.9 0-1.5 0.3-0.7 0.2-1.2 0.6-0.4 0.4-0.6 0.9-0.3 0.6-0.3 1.2 0 0.8 0.4 1.3 0.5 0.6 1.1 1 0.7 0.3 1.6 0.6 0.8 0.3 1.7 0.6 0.9 0.3 1.8 0.7 0.8 0.4 1.5 1 0.7 0.6 1.1 1.4 0.4 0.9 0.4 2.1 0 1.4-0.5 2.5-0.4 1.2-1.3 2.1-0.9 0.8-2.1 1.3-1.3 0.5-2.9 0.5-1 0-1.9-0.2-0.9-0.2-1.7-0.5-0.8-0.3-1.5-0.8-0.7-0.5-1.3-1.1l0.9-1.4q0.1-0.2 0.3-0.3 0.1-0.1 0.4-0.1 0.3 0 0.6 0.3 0.4 0.3 1 0.7 0.6 0.3 1.3 0.6 0.8 0.3 2 0.3 0.9 0 1.6-0.2 0.8-0.2 1.2-0.7 0.5-0.5 0.8-1.1 0.3-0.6 0.3-1.4 0-0.9-0.4-1.5-0.4-0.5-1.1-0.9-0.7-0.4-1.5-0.6-0.9-0.3-1.8-0.6-0.9-0.3-1.7-0.7-0.9-0.3-1.6-1-0.6-0.6-1-1.5-0.4-0.9-0.4-2.2 0-1.1 0.4-2.1 0.4-1 1.2-1.8 0.8-0.8 2-1.3 1.2-0.4 2.7-0.4 1.7 0 3.1 0.5 1.4 0.6 2.5 1.6z"/>
			<path id="&lt;Compound Path&gt;" class="s0" d="m542.2 204.6q0.3 0 0.5 0.2l1.2 1.3q-1.3 1.4-3 2.2-1.8 0.8-4.3 0.8-2.2 0-4-0.7-1.7-0.8-3-2.1-1.2-1.4-1.9-3.3-0.7-1.9-0.7-4.2 0-2.2 0.7-4.1 0.7-1.9 2-3.3 1.3-1.3 3.1-2.1 1.9-0.7 4.1-0.7 2.1 0 3.8 0.7 1.6 0.7 2.9 1.8l-1 1.4q-0.1 0.2-0.3 0.3-0.1 0.1-0.3 0.1-0.3 0-0.7-0.3-0.3-0.3-0.9-0.6-0.6-0.3-1.4-0.6-0.9-0.3-2.2-0.3-1.5 0-2.7 0.6-1.3 0.5-2.2 1.5-0.9 1-1.4 2.4-0.5 1.4-0.5 3.2 0 1.9 0.6 3.3 0.5 1.4 1.4 2.4 0.9 1 2.1 1.5 1.3 0.6 2.7 0.6 0.9 0 1.5-0.1 0.7-0.1 1.3-0.4 0.6-0.2 1.1-0.5 0.5-0.3 1-0.8 0.2-0.1 0.3-0.1 0.1-0.1 0.2-0.1z"/>
			<path id="&lt;Compound Path&gt;" fill-rule="evenodd" class="s0" d="m565.8 198.8q0 2.3-0.7 4.2-0.7 1.9-2.1 3.2-1.3 1.4-3.1 2.2-1.8 0.7-4.1 0.7-2.2 0-4-0.7-1.9-0.8-3.2-2.2-1.3-1.3-2-3.2-0.8-1.9-0.8-4.2 0-2.2 0.8-4.1 0.7-1.9 2-3.2 1.3-1.4 3.2-2.2 1.8-0.7 4-0.7 2.3 0 4.1 0.7 1.8 0.8 3.1 2.2 1.4 1.3 2.1 3.2 0.7 1.9 0.7 4.1zm-3 0q-0.1-1.7-0.5-3.2-0.5-1.4-1.4-2.4-0.9-1-2.2-1.5-1.3-0.6-2.9-0.6-1.6 0-2.8 0.6-1.3 0.5-2.2 1.5-0.9 1-1.4 2.4-0.5 1.5-0.5 3.2 0 1.9 0.5 3.3 0.5 1.4 1.4 2.4 0.9 1 2.2 1.5 1.2 0.5 2.8 0.5 1.6 0 2.9-0.5 1.3-0.5 2.2-1.5 0.9-1 1.4-2.4 0.4-1.4 0.5-3.3z"/>
			<path id="&lt;Compound Path&gt;" class="s0" d="m586.6 188.8v20.1h-1.5q-0.4 0-0.6-0.1-0.3-0.2-0.5-0.4l-11.4-14.7q0.1 0.4 0.1 0.7 0 0.4 0 0.7v13.8h-2.6v-20.1h1.5q0.4 0 0.6 0.1 0.2 0.1 0.5 0.4l11.3 14.7q0-0.4 0-0.8 0-0.4 0-0.7v-13.7z"/>
			<path id="&lt;Compound Path&gt;" class="s0" d="m602.6 192.1q-0.2 0.2-0.3 0.3-0.2 0.1-0.4 0.1-0.3 0-0.6-0.2-0.3-0.2-0.8-0.5-0.5-0.3-1.2-0.5-0.6-0.3-1.6-0.3-0.8 0-1.5 0.3-0.7 0.2-1.1 0.6-0.5 0.4-0.7 0.9-0.2 0.6-0.2 1.2 0 0.8 0.4 1.3 0.4 0.6 1.1 1 0.6 0.3 1.5 0.6 0.8 0.3 1.7 0.6 0.9 0.3 1.8 0.7 0.8 0.4 1.5 1 0.7 0.6 1.1 1.4 0.4 0.9 0.4 2.1 0 1.4-0.4 2.5-0.5 1.2-1.4 2.1-0.8 0.8-2.1 1.3-1.3 0.5-2.9 0.5-0.9 0-1.8-0.2-1-0.2-1.8-0.5-0.8-0.3-1.5-0.8-0.7-0.5-1.3-1.1l0.9-1.4q0.1-0.2 0.3-0.3 0.2-0.1 0.4-0.1 0.3 0 0.7 0.3 0.4 0.3 0.9 0.7 0.6 0.3 1.4 0.6 0.8 0.3 1.9 0.3 0.9 0 1.7-0.2 0.7-0.2 1.2-0.7 0.5-0.5 0.8-1.1 0.2-0.6 0.2-1.4 0-0.9-0.4-1.5-0.4-0.5-1.1-0.9-0.6-0.4-1.5-0.6-0.8-0.3-1.7-0.6-0.9-0.3-1.8-0.7-0.8-0.3-1.5-1-0.7-0.6-1.1-1.5-0.4-0.9-0.4-2.2 0-1.1 0.4-2.1 0.4-1 1.2-1.8 0.8-0.8 2-1.3 1.2-0.4 2.7-0.4 1.7 0 3.1 0.5 1.4 0.6 2.5 1.6z"/>
			<path id="&lt;Compound Path&gt;" class="s0" d="m611.1 208.9h-3v-20.1h3z"/>
			<path id="&lt;Compound Path&gt;" class="s0" d="m633.3 188.8v20.1h-1.5q-0.4 0-0.6-0.1-0.2-0.2-0.5-0.4l-11.3-14.7q0 0.4 0 0.7 0.1 0.4 0.1 0.7v13.8h-2.7v-20.1h1.6q0.4 0 0.6 0.1 0.2 0.1 0.4 0.4l11.4 14.7q-0.1-0.4-0.1-0.8 0-0.4 0-0.7v-13.7z"/>
			<path id="&lt;Compound Path&gt;" class="s0" d="m638.5 198.3h11.2v2h-11.2z"/>
			<path id="&lt;Compound Path&gt;" class="s0" d="m676 188.8v20.1h-2.7v-14.3q0.1-0.3 0.1-0.7 0-0.4 0-0.7l-6.7 12.2q-0.3 0.7-1 0.7h-0.5q-0.7 0-1-0.7l-6.9-12.3q0.1 0.8 0.1 1.5v14.3h-2.6v-20.1h2.2q0.4 0 0.6 0.1 0.3 0.1 0.4 0.4l6.8 12q0.2 0.4 0.3 0.8 0.2 0.4 0.4 0.8 0.2-0.8 0.6-1.6l6.6-12q0.2-0.3 0.4-0.4 0.2-0.1 0.6-0.1z"/>
			<path id="&lt;Compound Path&gt;" fill-rule="evenodd" class="s0" d="m698.3 208.9h-2.3q-0.4 0-0.7-0.2-0.2-0.2-0.4-0.5l-1.7-4.7h-8.9l-1.8 4.7q-0.1 0.3-0.3 0.5-0.3 0.2-0.7 0.2h-2.3l8-20.1h3zm-5.9-7.5l-2.9-7.8q-0.4-0.8-0.7-2-0.1 0.6-0.3 1.1-0.2 0.5-0.3 0.9l-3 7.8z"/>
			<path id="&lt;Compound Path&gt;" fill-rule="evenodd" class="s0" d="m719.1 198.8q0 2.3-0.7 4.2-0.8 1.8-2.1 3.1-1.3 1.3-3.1 2.1-1.9 0.7-4.1 0.7h-7.6v-20.1h7.6q2.2 0 4.1 0.7 1.8 0.8 3.1 2.1 1.3 1.3 2.1 3.2 0.7 1.8 0.7 4zm-3.1 0q0-1.7-0.5-3.2-0.4-1.4-1.4-2.4-0.9-1-2.1-1.5-1.3-0.5-2.9-0.5h-4.6v15.3h4.6q1.6 0 2.9-0.5 1.2-0.5 2.1-1.5 1-1 1.4-2.4 0.5-1.4 0.5-3.3z"/>
			<path id="&lt;Compound Path&gt;" class="s0" d="m726.7 208.9h-3v-20.1h3z"/>
			<path id="&lt;Compound Path&gt;" class="s0" d="m742.7 192.1q-0.2 0.2-0.3 0.3-0.2 0.1-0.4 0.1-0.3 0-0.6-0.2-0.3-0.2-0.8-0.5-0.5-0.3-1.1-0.5-0.7-0.3-1.6-0.3-0.9 0-1.6 0.3-0.7 0.2-1.1 0.6-0.5 0.4-0.7 0.9-0.2 0.6-0.2 1.2 0 0.8 0.4 1.3 0.4 0.6 1.1 1 0.7 0.3 1.5 0.6 0.9 0.3 1.8 0.6 0.9 0.3 1.7 0.7 0.9 0.4 1.5 1 0.7 0.6 1.1 1.4 0.4 0.9 0.4 2.1 0 1.4-0.4 2.5-0.5 1.2-1.3 2.1-0.9 0.8-2.2 1.3-1.2 0.5-2.9 0.5-0.9 0-1.8-0.2-0.9-0.2-1.8-0.5-0.8-0.3-1.5-0.8-0.7-0.5-1.2-1.1l0.8-1.4q0.1-0.2 0.3-0.3 0.2-0.1 0.4-0.1 0.3 0 0.7 0.3 0.4 0.3 0.9 0.7 0.6 0.3 1.4 0.6 0.8 0.3 1.9 0.3 1 0 1.7-0.2 0.7-0.2 1.2-0.7 0.5-0.5 0.8-1.1 0.2-0.6 0.2-1.4 0-0.9-0.4-1.5-0.4-0.5-1-0.9-0.7-0.4-1.6-0.6-0.8-0.3-1.7-0.6-0.9-0.3-1.8-0.7-0.8-0.3-1.5-1-0.7-0.6-1.1-1.5-0.4-0.9-0.4-2.2 0-1.1 0.4-2.1 0.5-1 1.3-1.8 0.8-0.8 1.9-1.3 1.2-0.4 2.7-0.4 1.7 0 3.1 0.5 1.5 0.6 2.5 1.6z"/>
			<path id="&lt;Compound Path&gt;" fill-rule="evenodd" class="s0" d="m766.9 198.8q0 2.3-0.7 4.2-0.7 1.9-2.1 3.2-1.3 1.4-3.1 2.2-1.8 0.7-4.1 0.7-2.2 0-4.1-0.7-1.8-0.8-3.1-2.2-1.3-1.3-2-3.2-0.8-1.9-0.8-4.2 0-2.2 0.8-4.1 0.7-1.9 2-3.2 1.3-1.4 3.1-2.2 1.9-0.7 4.1-0.7 2.3 0 4.1 0.7 1.8 0.8 3.1 2.2 1.4 1.3 2.1 3.2 0.7 1.9 0.7 4.1zm-3.1 0q0-1.7-0.4-3.2-0.5-1.4-1.4-2.4-0.9-1-2.2-1.5-1.3-0.6-2.9-0.6-1.6 0-2.8 0.6-1.3 0.5-2.2 1.5-1 1-1.4 2.4-0.5 1.5-0.5 3.2 0 1.9 0.5 3.3 0.4 1.4 1.4 2.4 0.9 1 2.2 1.5 1.2 0.5 2.8 0.5 1.6 0 2.9-0.5 1.3-0.5 2.2-1.5 0.9-1 1.4-2.4 0.4-1.4 0.4-3.3z"/>
			<path id="&lt;Compound Path&gt;" class="s0" d="m787.7 188.8v20.1h-1.5q-0.3 0-0.5-0.1-0.3-0.2-0.5-0.4l-11.4-14.7q0.1 0.4 0.1 0.7 0 0.4 0 0.7v13.8h-2.6v-20.1h1.5q0.4 0 0.6 0.1 0.2 0.1 0.4 0.4l11.4 14.7q0-0.4 0-0.8-0.1-0.4-0.1-0.7v-13.7z"/>
		</g>
		<g id="&lt;Group&gt;">
			<path id="&lt;Path&gt;" class="s1" d="m133.9 235.2c-0.4-0.1-1.5-1.2-2.5-2.6l-0.1-0.2-0.3-0.1c-41.7-9.7-64.9-73.8-59.7-125.1 0.6-6 1.6-11.6 3-16.7 1.4-5.3 3.2-10.3 5.3-14.8 2.4-4.9 5.4-9.3 8.7-13 6.9-7.5 15.5-11.6 24.8-11.8 0.2 0 0.8 0 0.8-0.5 1.6-3.3 5.8-5.7 8.9-6.1l0.5-0.1 0.1-0.4c0.1-0.3 2.1-8.2 10.5-8.2 8.4 0 10.4 8.1 10.5 8.2l0.1 0.4 0.4 0.1c3.1 0.4 7.3 2.7 8.9 6 0.1 0.6 0.7 0.6 0.9 0.6 9.3 0.2 17.8 4.3 24.8 11.8 3.8 4.2 7.1 9.4 9.7 15.5l0.6 1.3c3.3 8 5.6 17.3 6.6 27.7 5.2 51.3-18 115.4-59.7 125.1l-0.3 0.1-0.1 0.2c-1 1.4-2.1 2.5-2.4 2.6z"/>
			<path id="&lt;Compound Path&gt;" fill-rule="evenodd" class="s2" d="m136.8 232.9c-0.7 1-2.1 3-2.9 3-0.8 0-2.3-2-2.9-3-42.2-9.8-65.6-73.8-60.3-125.8q0.7-6.4 2-12.7c0.9-3.8 1.9-7.6 3.2-11.3 1.4-3.9 3.1-7.7 5.2-11.3 1.9-3.4 4.1-6.6 6.8-9.5 7-7.7 15.6-11.9 25.2-12h0.2c1.5-3.4 5.8-6.2 9.6-6.7 0 0 2-8.6 11-8.6 9 0 11 8.6 11 8.6 3.7 0.5 8 3.3 9.5 6.7h0.2c9.6 0.1 18.3 4.3 25.3 12 2.6 2.9 4.9 6.1 6.8 9.5 2 3.6 3.7 7.4 5.1 11.3 1.3 3.7 2.4 7.5 3.2 11.3q1.4 6.3 2 12.7c5.3 52-18.1 116-60.2 125.8zm-12-189.5c3.7 0.2 7.1 2.4 8.9 5.6 0 0.1 0.1 0.3 0.2 0.3 0 0 0.1-0.2 0.1-0.3 1.8-3.2 5.2-5.4 8.9-5.6 0-0.1-1.6-6.4-9-6.4-7.4 0-9.1 6.3-9.1 6.4zm-9.1 7.1c1.2 0.2 2.3 0.5 3.8 1 2.2 0.7 4 1.6 5.5 3 3.4 3.1 6.4 7.9 7 14.1 1.5 16.8-17.8 14.2-18.7 14.1-2.5 0-4.4-4-4.4-9.2 0-5.2 1.9-9.1 4.4-9.1 1.4 0 4 1.2 4.3 5.9 0.1 3.2-1.5 7.6-3.5 7.9-1.1 0.1-2.1-1.8-2.4-3.7-0.3-1.7-0.1-4.3 1.4-4.7 0.4-0.1 0.9 0.2 1 0.6 0.1 0.5-0.9 1.2-0.8 3.1 0 2.9 2.9 1.5 2.5-3.1-0.3-4.1-2.4-3.8-2.5-3.8-1.1 0-2.9 2.4-2.9 6.9 0 4.1 2 8.4 5.7 6.1 3.1-2.3 4.3-7.5 3.5-11.6-0.4-1.9-2.1-6.9-7.2-6.9-7.5 0-14.5 3.9-20.1 11.2 0.6 2 4.5 9.5 16.7 16.6 0.3 0.2 0.7 0.4 0.7 0.4 3.8-1.5 7.3-2.5 11.4-2.3 3.6 0.2 7.1 0.9 10.7 1.7 0.6 0.2 1.4 0.4 2.1 0.4 0.7 0 1.4-0.2 2.1-0.4 3.5-0.8 7-1.5 10.7-1.7 4-0.2 7.6 0.8 11.3 2.3 0 0 0.4-0.2 0.7-0.4 12.3-7.1 16.1-14.6 16.8-16.6-5.6-7.3-12.6-11.2-20.1-11.2-5.2 0-6.8 5-7.2 6.9-0.9 4.1 0.3 9.3 3.5 11.6 3.7 2.3 5.6-2 5.6-6.1 0-4.5-1.7-6.9-2.9-6.9-0.1 0-2.1-0.3-2.5 3.8-0.4 4.6 2.5 6 2.6 3.1 0-1.9-1-2.6-0.9-3.1 0.1-0.4 0.6-0.7 1.1-0.6 1.5 0.4 1.6 3 1.3 4.7-0.3 1.9-1.3 3.8-2.3 3.7-2.1-0.3-3.7-4.7-3.5-7.9 0.2-4.7 2.8-5.9 4.3-5.9 2.4 0 4.4 3.9 4.4 9.1 0 5.2-1.9 9.2-4.4 9.2-1 0.1-20.3 2.7-18.8-14.1 0.6-6.2 3.6-11 7-14.1 1.6-1.4 3.3-2.3 5.5-3 1.5-0.5 2.6-0.8 3.8-1-2.4-4.7-8.5-6.9-13.9-3.6-1.7 1.1-3.1 2.8-3.6 4.8-0.2 0.6-0.4 1-0.6 1-0.3 0-0.5-0.4-0.6-1-0.5-2-1.9-3.7-3.7-4.8-5.4-3.3-11.5-1.1-13.9 3.6zm13.5 179.4c-1-2-1.7-4.4-1.6-7.2q-2.6-0.9-5.1-2.2c-7.3-3.7-13.6-9.4-18.7-15.8-5.1-6.3-9.2-13.4-12.6-20.7-3.4-7.3-6-15-8.1-22.7-2.1-8-3.6-16.2-4.5-24.4-0.8-8.1-1.1-16.4-0.5-24.5 0.6-8.9 2.1-17.8 5-26.2 2.4-6.5 5.6-12.9 10.3-18.1 4.9-5.3 11.4-8.9 18.7-9 4.9 0 8.2 3.8 9.3 8.5 0.8 3.9 0 8.6-2.5 11.8-1 1-0.8 1.3-0.5 1.3 2.1 0.1 12.7-1.6 11.8-12-0.6-6.7-3.9-11.2-7.7-13.9-3.4-2.1-7.3-2.4-9-2.4-1.9 0-3.9 0.1-5.8 0.5-0.8 0.1-1.7 0.4-2.4 0.6q-1.2 0.3-2.4 0.7-2.3 0.9-4.4 2c-3.5 1.9-6.5 4.4-9.2 7.2-2.8 3-5.2 6.5-7.2 10.2-2 3.6-3.5 7.3-4.8 11.2-1.5 4.2-2.5 8.5-3.3 12.9-0.8 4.4-1.4 8.8-1.7 13.3-0.7 8.2-0.6 16.6 0.1 24.9 0.7 8.4 2.1 16.8 4.1 25 2 8 4.6 15.9 7.9 23.4 3.4 7.9 7.7 15.5 12.9 22.3q1.6 2.2 3.3 4.2 2.6 3 5.4 5.7c2.3 2.2 4.8 4.2 7.5 6 4.2 2.9 8.7 5.2 13.5 6.7 1 0.4 1 0.4 2.2 0.7zm-35.9-113.7c1.4-8.7 5.7-20.4 15.1-26.1-11.1-6.5-15.9-13.7-17-16.5-6.2 8.7-10.5 22-11.5 38.8 2.3 1.2 7.1 3.3 13.4 3.8zm2 71.9c6.2 11.9 14 21.7 23.2 27.9 1.6-1.2 6.2-5.1 8.1-10-5.3-3.8-12.3-11.1-19.4-23.3-4 3.5-9.5 4.9-11.9 5.4zm24.3 28.7q3.9 2.5 8.2 4.1 0-0.2 0.1-0.3c0.6-3.1 4.5-3.7 6-3.7 1.4 0 5.4 0.6 6 3.7q0 0.1 0 0.3 4.3-1.6 8.3-4.1c-2-1.6-6.2-5.3-8.2-10-2.8 2-5.8 3.2-6.1 3.3-0.4-0.1-3.3-1.3-6.2-3.3-2 4.7-6.2 8.4-8.1 10zm75.9-105.8c-0.4-4.5-0.9-8.9-1.7-13.3-0.8-4.4-1.9-8.7-3.3-12.9-1.3-3.9-2.9-7.6-4.9-11.2-2-3.7-4.3-7.2-7.2-10.2-2.7-2.8-5.7-5.3-9.1-7.2q-2.2-1.1-4.5-2-1.1-0.4-2.3-0.7c-0.8-0.2-1.6-0.5-2.4-0.6-2-0.4-3.9-0.5-5.9-0.5-1.6 0-5.5 0.3-8.9 2.4-3.8 2.7-7.1 7.2-7.7 13.9-0.9 10.4 9.7 12.1 11.7 12 0.4 0 0.5-0.3-0.5-1.3-2.4-3.2-3.2-7.9-2.4-11.8 1-4.7 4.3-8.5 9.2-8.5 7.3 0.1 13.9 3.7 18.7 9 4.7 5.2 8 11.6 10.3 18.1 3 8.4 4.5 17.3 5.1 26.2 0.5 8.1 0.3 16.4-0.6 24.5-0.8 8.2-2.3 16.4-4.5 24.4-2 7.7-4.7 15.4-8.1 22.7-3.4 7.3-7.5 14.4-12.6 20.7-5.1 6.4-11.4 12.1-18.7 15.8q-2.5 1.3-5.1 2.2c0.1 2.8-0.6 5.2-1.5 7.2 1.1-0.3 1.2-0.3 2.1-0.7 4.8-1.5 9.4-3.8 13.5-6.7 2.7-1.8 5.2-3.8 7.5-6q2.9-2.7 5.4-5.7 1.8-2 3.4-4.2c5.1-6.8 9.4-14.4 12.8-22.3 3.3-7.5 5.9-15.4 7.9-23.4 2-8.2 3.4-16.6 4.1-25 0.7-8.3 0.9-16.7 0.2-24.9zm-22.5 76c10.7-21.2 16.1-48.6 14.9-73.3-2.5 1.3-7.2 3.2-13.2 3.7 0.4 3.3 0.6 6 0.7 7.7 0.2 6-0.1 12.1-0.9 18.2-0.8 5.7-2.1 11.4-3.8 16.8-2.4 7.5-5.7 14.7-9.5 21.5 3.9 3.6 9.8 5 11.8 5.4zm14.8-74.6c-1-16.8-5.3-30.1-11.5-38.8-1.1 2.8-5.9 10-17 16.5 9.4 5.9 13.7 17.4 15.2 26.1 6.2-0.5 11-2.6 13.3-3.8zm-108 1.3c-1.2 24.7 4.3 52.1 14.9 73.3 2-0.4 7.9-1.8 11.9-5.4-3.9-6.8-7.2-14-9.5-21.5-1.8-5.4-3.1-11.1-3.9-16.8-0.8-6.1-1.1-12.2-0.9-18.2 0.1-1.7 0.3-4.4 0.8-7.7-6.1-0.5-10.8-2.4-13.3-3.7zm58.3 107.2c-0.3-1.5-2.8-2.1-4.2-2.2-1.5 0.1-3.9 0.7-4.2 2.2-1 5.2 1.6 9.6 3.4 11.9 0.1 0 0.4 0.4 0.8 0.5 0.3-0.1 0.7-0.5 0.7-0.5 1.8-2.3 4.5-6.7 3.5-11.9zm11.1-4.9c9.3-6.2 17.1-16 23.2-27.9-2.3-0.5-7.9-1.9-11.9-5.4-7 12.2-14.1 19.5-19.4 23.3 1.9 4.9 6.5 8.8 8.1 10z"/>
			<path id="&lt;Path&gt;" class="s3" d="m173.1 125.4c-0.3-6.2-2.1-25.1-14.9-33.3-2.8-1.8-6.4-2.5-10.1-2.8-6.3-0.4-11 2-14.2 2.1h-0.1c-3.2-0.1-7.9-2.5-14.2-2.1-3.7 0.3-7.3 1-10 2.8-12.9 8.2-14.7 27.1-15 33.3-0.9 21.9 6 39 8.2 43.7 8.9 19.6 19.6 33.4 30.2 38.1l0.9 0.4 0.8-0.4c10.6-4.7 21.4-18.5 30.3-38.1 2.1-4.7 9-21.8 8.1-43.7z"/>
			<path id="&lt;Path&gt;" class="s0" d="m153 110.5v4.3l0.8-0.1c0 0 0.2 0 0.4 0 0.5 0 1.4 0 1.9 0.6 0.5 0.5 0.7 1.4 0.5 2.5 0 0.1-8.6 37.3-10.2 44.4-1.9-9-12.1-57.9-12.1-57.9l-0.1-0.2h-2v0.2c0 0-7.4 47.6-8.9 57.2-1.9-8.3-10.2-43.6-10.2-43.6q0-0.3 0-0.7 0-1.5 0.7-2.1c0.6-0.6 1.6-0.6 1.6-0.5l0.9 0.1v-4.2h-14.4v4.1l0.7 0.1c0.3 0 1.9 0.4 2.1 1.9 0.1 0 16.9 72.1 17.6 75.2v0.2h2.5l0.1-0.2c0.1-0.5 6.9-45.3 8.2-53.7 1.6 8.4 10.3 53.2 10.4 53.7v0.2h2.3l16.7-75.5c0.4-1.5 1.7-1.7 2.3-1.7q0.1 0 0.2 0l0.8 0.1v-4.4z"/>
		</g>
	</g>
</svg>